{
  "asset": {
    "version": "2.0",
    "generator": "pt10-blender-map courtyard"
  },
  "scene": 0,
  "scenes": [
    {
      "nodes": [
        0
      ],
      "name": "Courtyard"
    }
  ],
  "nodes": [
    {
      "name": "Courtyard",
      "mesh": 0
    }
  ],
  "meshes": [
    {
      "name": "Courtyard",
      "primitives": [
        {
          "attributes": {
            "POSITION": 1,
            "NORMAL": 2
          },
          "indices": 0,
          "material": 0
        }
      ]
    }
  ],
  "materials": [
    {
      "name": "Courtyard",
      "doubleSided": true,
      "pbrMetallicRoughness": {
        "baseColorFactor": [
          0.55,
          0.57,
          0.52,
          1
        ],
        "metallicFactor": 0,
        "roughnessFactor": 0.85
      }
    }
  ],
  "accessors": [
    {
      "bufferView": 0,
      "byteOffset": 0,
      "componentType": 5123,
      "count": 288,
      "type": "SCALAR",
      "max": [
        191
      ],
      "min": [
        0
      ]
    },
    {
      "bufferView": 1,
      "byteOffset": 0,
      "componentType": 5126,
      "count": 192,
      "type": "VEC3",
      "max": [
        20.5,
        3.0,
        20.5
      ],
      "min": [
        -20.5,
        -0.2,
        -20.5
      ]
    },
    {
      "bufferView": 2,
      "byteOffset": 0,
      "componentType": 5126,
      "count": 192,
      "type": "VEC3"
    }
  ],
  "bufferViews": [
    {
      "buffer": 0,
      "byteOffset": 0,
      "byteLength": 576,
      "target": 34963
    },
    {
      "buffer": 0,
      "byteOffset": 576,
      "byteLength": 2304,
      "target": 34962
    },
    {
      "buffer": 0,
      "byteOffset": 2880,
      "byteLength": 2304,
      "target": 34962
    }
  ],
  "buffers": [
    {
      "byteLength": 5184,
      "uri": "Courtyard.bin"
    }
  ]
}
